<svg width="150" height="150" viewBox="0 0 150 150" fill="none" xmlns="http://www.w3.org/2000/svg">
<g id="mdi:emoticon-outline">
<path id="Vector" d="M75 109.375C89.5625 109.375 101.875 100.25 106.938 87.5H43.0625C48.0625 100.25 60.4375 109.375 75 109.375ZM53.125 68.75C55.6114 68.75 57.996 67.7623 59.7541 66.0041C61.5123 64.246 62.5 61.8614 62.5 59.375C62.5 56.8886 61.5123 54.504 59.7541 52.7459C57.996 50.9877 55.6114 50 53.125 50C50.6386 50 48.254 50.9877 46.4959 52.7459C44.7377 54.504 43.75 56.8886 43.75 59.375C43.75 61.8614 44.7377 64.246 46.4959 66.0041C48.254 67.7623 50.6386 68.75 53.125 68.75ZM96.875 68.75C99.3614 68.75 101.746 67.7623 103.504 66.0041C105.262 64.246 106.25 61.8614 106.25 59.375C106.25 56.8886 105.262 54.504 103.504 52.7459C101.746 50.9877 99.3614 50 96.875 50C94.3886 50 92.004 50.9877 90.2459 52.7459C88.4877 54.504 87.5 56.8886 87.5 59.375C87.5 61.8614 88.4877 64.246 90.2459 66.0041C92.004 67.7623 94.3886 68.75 96.875 68.75ZM75 125C61.7392 125 49.0215 119.732 39.6447 110.355C30.2678 100.979 25 88.2608 25 75C25 61.7392 30.2678 49.0215 39.6447 39.6447C49.0215 30.2678 61.7392 25 75 25C88.2608 25 100.979 30.2678 110.355 39.6447C119.732 49.0215 125 61.7392 125 75C125 88.2608 119.732 100.979 110.355 110.355C100.979 119.732 88.2608 125 75 125ZM75 12.5C40.4375 12.5 12.5 40.625 12.5 75C12.5 91.576 19.0848 107.473 30.8058 119.194C36.6095 124.998 43.4994 129.602 51.0823 132.742C58.6651 135.883 66.7924 137.5 75 137.5C91.576 137.5 107.473 130.915 119.194 119.194C130.915 107.473 137.5 91.576 137.5 75C137.5 66.7924 135.883 58.6651 132.742 51.0823C129.602 43.4994 124.998 36.6095 119.194 30.8058C113.391 25.0022 106.501 20.3984 98.9177 17.2575C91.3349 14.1166 83.2076 12.5 75 12.5Z" fill="#272866"/>
</g>
</svg>
