<svg width="50" height="50" viewBox="0 0 50 50" fill="none" xmlns="http://www.w3.org/2000/svg">
<path d="M18.258 0L22.206 0.01C23.762 0.198 25.126 0.93 26.25 2.166C27.168 3.174 27.65 4.346 27.678 5.622H38.628C38.9936 5.62412 39.3435 5.77127 39.6007 6.03114C39.858 6.291 40.0016 6.64234 40 7.008C40.0008 7.18896 39.9659 7.36831 39.8974 7.5358C39.8289 7.70329 39.728 7.85564 39.6006 7.98415C39.4732 8.11267 39.3218 8.21483 39.1549 8.28481C38.988 8.35479 38.8089 8.39121 38.628 8.392L34.956 8.39V31.644C34.956 36.73 33.058 40 28.874 40H10.838C6.654 40 4.786 36.748 4.786 31.644V8.39H1.372C1.00723 8.38841 0.657964 8.24226 0.400778 7.98357C0.143592 7.72488 -0.000531414 7.37478 1.47248e-06 7.01C1.47248e-06 6.244 0.614001 5.626 1.372 5.626H12.312C12.34 4.598 12.722 3.556 13.42 2.526C14.46 0.99 16.084 0.148 18.258 0ZM32.212 8.39H7.528V31.644C7.528 35.42 8.568 37.232 10.838 37.232H28.874C31.152 37.232 32.214 35.404 32.214 31.644L32.212 8.39ZM13.432 12.68C14.188 12.68 14.802 13.3 14.802 14.064V30.164C14.8028 30.345 14.7679 30.5243 14.6994 30.6918C14.6309 30.8593 14.53 31.0116 14.4026 31.1402C14.2752 31.2687 14.1238 31.3708 13.9569 31.4408C13.79 31.5108 13.611 31.5472 13.43 31.548C13.0649 31.5459 12.7155 31.3989 12.4587 31.1395C12.2018 30.88 12.0584 30.5291 12.06 30.164V14.064C12.06 13.3 12.676 12.68 13.432 12.68ZM18.884 12.68C19.644 12.68 20.256 13.3 20.256 14.064V30.164C20.2568 30.345 20.2219 30.5243 20.1534 30.6918C20.0849 30.8593 19.984 31.0116 19.8566 31.1402C19.7292 31.2687 19.5778 31.3708 19.4109 31.4408C19.244 31.5108 19.065 31.5472 18.884 31.548C18.5189 31.5459 18.1695 31.3989 17.9126 31.1395C17.6558 30.88 17.5124 30.5291 17.514 30.164V14.064C17.514 13.3 18.128 12.68 18.884 12.68ZM24.34 12.68C25.096 12.68 25.71 13.3 25.71 14.064V30.164C25.7116 30.5291 25.5682 30.88 25.3113 31.1395C25.0545 31.3989 24.7051 31.5459 24.34 31.548C24.159 31.5472 23.98 31.5108 23.8131 31.4408C23.6462 31.3708 23.4948 31.2687 23.3674 31.1402C23.24 31.0116 23.1391 30.8593 23.0706 30.6918C23.0021 30.5243 22.9672 30.345 22.968 30.164V14.064C22.9669 13.6987 23.1108 13.3479 23.3679 13.0884C23.6251 12.829 23.9747 12.6821 24.34 12.68ZM18.352 2.764C17.068 2.854 16.222 3.292 15.684 4.088C15.288 4.67 15.09 5.174 15.058 5.624L24.934 5.622C24.906 5.04 24.676 4.528 24.23 4.038C23.538 3.278 22.77 2.866 22.044 2.768L18.352 2.764Z" fill="#D9E7F5"/>
</svg>
