<svg width="40" height="40" viewBox="0 0 40 40" fill="none" xmlns="http://www.w3.org/2000/svg">
<path d="M11.6667 11.6665H10.0001C9.11603 11.6665 8.26818 12.0177 7.64306 12.6428C7.01794 13.2679 6.66675 14.1158 6.66675 14.9998V29.9998C6.66675 30.8839 7.01794 31.7317 7.64306 32.3569C8.26818 32.982 9.11603 33.3332 10.0001 33.3332H25.0001C25.8841 33.3332 26.732 32.982 27.3571 32.3569C27.9822 31.7317 28.3334 30.8839 28.3334 29.9998V28.3332" stroke="#D9E7F5" stroke-width="4.16667" stroke-linecap="round" stroke-linejoin="round"/>
<path d="M26.6667 8.33327L31.6667 13.3333M33.975 10.9749C34.6314 10.3185 35.0002 9.42824 35.0002 8.49993C35.0002 7.57163 34.6314 6.68135 33.975 6.02493C33.3186 5.36852 32.4283 4.99976 31.5 4.99976C30.5717 4.99976 29.6814 5.36852 29.025 6.02493L15 19.9999V24.9999H20L33.975 10.9749Z" stroke="#D9E7F5" stroke-width="4.16667" stroke-linecap="round" stroke-linejoin="round"/>
</svg>
