<svg width="30" height="30" viewBox="0 0 30 30" fill="none" xmlns="http://www.w3.org/2000/svg">
<g clip-path="url(#clip0_65_95)">
<path d="M3.46154 4.61536C1.55077 4.61536 0 6.16613 0 8.07689V21.923C0 23.8338 1.55077 25.3846 3.46154 25.3846H26.5385C28.4492 25.3846 30 23.8338 30 21.923V8.07689C30 6.16613 28.4492 4.61536 26.5385 4.61536H3.46154ZM3.46154 6.92305H26.5385C27.1742 6.92305 27.6923 7.44113 27.6923 8.07689V8.65382L15 15.5054L2.30769 8.65382V8.07689C2.30769 7.44113 2.82577 6.92305 3.46154 6.92305ZM2.30769 8.97805L9.84346 14.8557L2.45192 22.4284L11.4669 16.0096L15 18.2815L18.5342 16.0096L27.5481 22.4284L20.1565 14.8557L27.6923 8.97805V21.923C27.6859 22.1007 27.6364 22.2742 27.5481 22.4284C27.3577 22.8034 26.9873 23.0769 26.5385 23.0769H3.46154C3.01269 23.0769 2.64231 22.8046 2.45192 22.4284C2.36375 22.2745 2.31426 22.1003 2.30769 21.923V8.97805Z" fill="#272866"/>
</g>
<defs>
<clipPath id="clip0_65_95">
<rect width="30" height="30" fill="white"/>
</clipPath>
</defs>
</svg>
