<svg width="30" height="30" viewBox="0 0 30 30" fill="none" xmlns="http://www.w3.org/2000/svg">
<path d="M8.06875 23.75L2.5 28.125V5C2.5 4.66848 2.6317 4.35054 2.86612 4.11612C3.10054 3.8817 3.41848 3.75 3.75 3.75H26.25C26.5815 3.75 26.8995 3.8817 27.1339 4.11612C27.3683 4.35054 27.5 4.66848 27.5 5V22.5C27.5 22.8315 27.3683 23.1495 27.1339 23.3839C26.8995 23.6183 26.5815 23.75 26.25 23.75H8.06875ZM7.20375 21.25H25V6.25H5V22.9813L7.20375 21.25ZM13.75 12.5H16.25V15H13.75V12.5ZM8.75 12.5H11.25V15H8.75V12.5ZM18.75 12.5H21.25V15H18.75V12.5Z" fill="#D9E7F5"/>
</svg>
