<svg width="40" height="40" viewBox="0 0 40 40" fill="none" xmlns="http://www.w3.org/2000/svg">
<path d="M28.3335 11.6666H25.0002C25.0002 11.01 24.8708 10.3598 24.6196 9.75317C24.3683 9.14654 24 8.59534 23.5357 8.13105C23.0714 7.66676 22.5202 7.29846 21.9136 7.04719C21.307 6.79591 20.6568 6.66659 20.0002 6.66659C19.3436 6.66659 18.6934 6.79591 18.0867 7.04719C17.4801 7.29846 16.9289 7.66676 16.4646 8.13105C16.0003 8.59534 15.632 9.14654 15.3808 9.75317C15.1295 10.3598 15.0002 11.01 15.0002 11.6666V19.9999H28.3335C29.2176 19.9999 30.0654 20.3511 30.6905 20.9762C31.3156 21.6014 31.6668 22.4492 31.6668 23.3333V33.3333C31.6668 34.2173 31.3156 35.0652 30.6905 35.6903C30.0654 36.3154 29.2176 36.6666 28.3335 36.6666H11.6668C10.7828 36.6666 9.93493 36.3154 9.30981 35.6903C8.68469 35.0652 8.3335 34.2173 8.3335 33.3333V23.3333C8.3335 22.4492 8.68469 21.6014 9.30981 20.9762C9.93493 20.3511 10.7828 19.9999 11.6668 19.9999V11.6666C11.6668 9.45645 12.5448 7.33683 14.1076 5.77403C15.6704 4.21123 17.79 3.33325 20.0002 3.33325C22.2103 3.33325 24.3299 4.21123 25.8927 5.77403C27.4555 7.33683 28.3335 9.45645 28.3335 11.6666ZM20.0002 31.6666C20.8842 31.6666 21.7321 31.3154 22.3572 30.6903C22.9823 30.0652 23.3335 29.2173 23.3335 28.3333C23.3335 27.4492 22.9823 26.6014 22.3572 25.9762C21.7321 25.3511 20.8842 24.9999 20.0002 24.9999C19.1161 24.9999 18.2683 25.3511 17.6431 25.9762C17.018 26.6014 16.6668 27.4492 16.6668 28.3333C16.6668 29.2173 17.018 30.0652 17.6431 30.6903C18.2683 31.3154 19.1161 31.6666 20.0002 31.6666Z" fill="#D9E7F5"/>
</svg>
