<svg width="30" height="30" viewBox="0 0 30 30" fill="none" xmlns="http://www.w3.org/2000/svg">
<path d="M21.25 11.25V8.75C21.25 5.25 18.5 2.5 15 2.5C11.5 2.5 8.75 5.25 8.75 8.75V11.25C6.625 11.25 5 12.875 5 15V23.75C5 25.875 6.625 27.5 8.75 27.5H21.25C23.375 27.5 25 25.875 25 23.75V15C25 12.875 23.375 11.25 21.25 11.25ZM11.25 8.75C11.25 6.625 12.875 5 15 5C17.125 5 18.75 6.625 18.75 8.75V11.25H11.25V8.75ZM16.375 19.375L16.25 19.5V21.25C16.25 22 15.75 22.5 15 22.5C14.25 22.5 13.75 22 13.75 21.25V19.5C13 18.75 12.875 17.625 13.625 16.875C14.375 16.125 15.5 16 16.25 16.75C17 17.375 17.125 18.625 16.375 19.375Z" fill="#F24E1E"/>
</svg>
