<svg width="60" height="60" viewBox="0 0 60 60" fill="none" xmlns="http://www.w3.org/2000/svg">
<g id="mdi:magnify-expand">
<path id="Vector" d="M45 40H43.55L41.525 37.975C43.7717 34.9437 44.9894 31.2731 45 27.5C45 17.825 37.175 10 27.5 10C23.75 10 20 11.25 16.975 13.5C9.25 19.3 7.675 30.275 13.475 38C19.275 45.725 30.25 47.3 37.975 41.5L40 43.525V45L52.5 57.5L57.5 52.5L45 40ZM27.5 40C20.6 40 15 34.4 15 27.5C15 20.6 20.6 15 27.5 15C34.4 15 40 20.6 40 27.5C40 34.4 34.4 40 27.5 40ZM7.5 15L2.5 20V2.5H20L15 7.5H7.5V15ZM52.5 2.5V20L47.5 15V7.5H40L35 2.5H52.5ZM15 47.5L20 52.5H2.5V35L7.5 40V47.5H15Z" fill="#272866"/>
</g>
</svg>
