<svg width="60" height="80" viewBox="0 0 60 80" fill="none" xmlns="http://www.w3.org/2000/svg">
<path d="M56.5052 54.675L29.9782 73.8359L3.45126 54.675C2.92604 54.3511 2.3209 54.2873 1.75902 54.4965C1.19715 54.7057 0.720755 55.1723 0.426815 55.8013C0.132875 56.4302 0.0434788 57.1743 0.176821 57.882C0.310164 58.5897 0.656223 59.2079 1.14456 59.6108L28.8249 79.6109C29.1776 79.8657 29.5786 79.9999 29.9869 79.9999C30.3952 79.9999 30.7962 79.8657 31.1489 79.6109L58.8292 59.6108C59.0951 59.4244 59.3284 59.1746 59.5157 58.8757C59.703 58.5767 59.8404 58.2347 59.9201 57.8695C59.9998 57.5042 60.0202 57.123 59.98 56.7479C59.9398 56.3729 59.8398 56.0114 59.6859 55.6846C59.532 55.3578 59.3273 55.072 59.0835 54.844C58.8397 54.616 58.5619 54.4502 58.2659 54.3563C57.97 54.2624 57.662 54.2422 57.3598 54.2969C57.0575 54.3516 56.767 54.4801 56.5052 54.675Z" fill="#D9E7F5"/>
<path d="M56.5052 37.5321L29.9782 56.6929L3.45126 37.5321C2.92604 37.2082 2.3209 37.1443 1.75902 37.3536C1.19715 37.5628 0.720755 38.0294 0.426815 38.6583C0.132875 39.2873 0.0434788 40.0314 0.176821 40.7391C0.310164 41.4468 0.656223 42.065 1.14456 42.4678L28.8249 62.468C29.1776 62.7227 29.5786 62.857 29.9869 62.857C30.3952 62.857 30.7962 62.7227 31.1489 62.468L58.8292 42.4678C59.0951 42.2815 59.3284 42.0316 59.5157 41.7327C59.703 41.4338 59.8404 41.0918 59.9201 40.7265C59.9998 40.3613 60.0202 39.9801 59.98 39.605C59.9398 39.2299 59.8398 38.8685 59.6859 38.5416C59.532 38.2148 59.3273 37.9291 59.0835 37.7011C58.8397 37.473 58.5619 37.3073 58.2659 37.2133C57.97 37.1194 57.662 37.0992 57.3598 37.1539C57.0575 37.2086 56.767 37.3372 56.5052 37.5321Z" fill="#D9E7F5"/>
<path d="M1.1443 25.3249L28.8246 45.3251C29.1773 45.5798 29.5783 45.7141 29.9866 45.7141C30.3949 45.7141 30.7959 45.5798 31.1486 45.3251L58.829 25.3249C59.1772 25.0733 59.4661 24.713 59.6668 24.28C59.8676 23.847 59.9733 23.3564 59.9733 22.857C59.9733 22.3577 59.8676 21.8671 59.6668 21.4341C59.4661 21.0011 59.1772 20.6408 58.829 20.3892L31.1486 0.389005C30.7959 0.134239 30.3949 0 29.9866 0C29.5783 0 29.1773 0.134239 28.8246 0.389005L1.1443 20.3892C0.796094 20.6408 0.507206 21.0011 0.306429 21.4341C0.105653 21.8671 0 22.3577 0 22.857C0 23.3564 0.105653 23.847 0.306429 24.28C0.507206 24.713 0.796094 25.0733 1.1443 25.3249Z" fill="#D9E7F5"/>
</svg>
