<svg width="80" height="80" viewBox="0 0 80 80" fill="none" xmlns="http://www.w3.org/2000/svg">
<path d="M75.3402 54.675L39.9709 73.8359L4.60155 54.675C3.90126 54.3511 3.09441 54.2873 2.34524 54.4965C1.59607 54.7057 0.960885 55.1723 0.568965 55.8013C0.177045 56.4302 0.0578497 57.1743 0.23564 57.882C0.41343 58.5897 0.874842 59.2079 1.52596 59.6108L38.4331 79.6109C38.9033 79.8657 39.438 79.9999 39.9824 79.9999C40.5268 79.9999 41.0614 79.8657 41.5317 79.6109L78.4388 59.6108C78.7933 59.4244 79.1044 59.1746 79.3541 58.8757C79.6038 58.5767 79.7871 58.2347 79.8934 57.8695C79.9997 57.5042 80.0268 57.123 79.9732 56.7479C79.9196 56.3729 79.7863 56.0114 79.5811 55.6846C79.3759 55.3578 79.1029 55.072 78.7779 54.844C78.4529 54.616 78.0823 54.4502 77.6878 54.3563C77.2933 54.2624 76.8826 54.2422 76.4796 54.2969C76.0766 54.3516 75.6893 54.4801 75.3402 54.675Z" fill="#DBA111"/>
<path d="M75.3402 37.5322L39.9709 56.693L4.60155 37.5322C3.90126 37.2083 3.09441 37.1444 2.34524 37.3537C1.59607 37.5629 0.960885 38.0295 0.568965 38.6585C0.177045 39.2874 0.0578497 40.0315 0.23564 40.7392C0.41343 41.4469 0.874842 42.0651 1.52596 42.4679L38.4331 62.4681C38.9033 62.7229 39.438 62.8571 39.9824 62.8571C40.5268 62.8571 41.0614 62.7229 41.5317 62.4681L78.4388 42.4679C78.7933 42.2816 79.1044 42.0318 79.3541 41.7328C79.6038 41.4339 79.7871 41.0919 79.8934 40.7267C79.9997 40.3614 80.0268 39.9802 79.9732 39.6051C79.9196 39.23 79.7863 38.8686 79.5811 38.5418C79.3759 38.2149 79.1029 37.9292 78.7779 37.7012C78.4529 37.4732 78.0823 37.3074 77.6878 37.2135C77.2933 37.1195 76.8826 37.0993 76.4796 37.1541C76.0766 37.2088 75.6893 37.3373 75.3402 37.5322Z" fill="#DBA111"/>
<path d="M1.52574 25.3249L38.4328 45.3251C38.9031 45.5798 39.4378 45.7141 39.9822 45.7141C40.5266 45.7141 41.0612 45.5798 41.5315 45.3251L78.4386 25.3249C78.9029 25.0733 79.2881 24.713 79.5558 24.28C79.8235 23.847 79.9644 23.3564 79.9644 22.857C79.9644 22.3577 79.8235 21.8671 79.5558 21.4341C79.2881 21.0011 78.9029 20.6408 78.4386 20.3892L41.5315 0.389005C41.0612 0.134239 40.5266 0 39.9822 0C39.4378 0 38.9031 0.134239 38.4328 0.389005L1.52574 20.3892C1.06146 20.6408 0.676274 21.0011 0.408572 21.4341C0.14087 21.8671 0 22.3577 0 22.857C0 23.3564 0.14087 23.847 0.408572 24.28C0.676274 24.713 1.06146 25.0733 1.52574 25.3249Z" fill="#DBA111"/>
</svg>
