<svg width="26" height="30" viewBox="0 0 26 30" fill="none" xmlns="http://www.w3.org/2000/svg">
<path d="M4.09375 29.0625H2.21875C1.84579 29.0625 1.4881 28.9143 1.22438 28.6506C0.960658 28.3869 0.8125 28.0292 0.8125 27.6562V19.2188C0.8125 18.8458 0.960658 18.4881 1.22438 18.2244C1.4881 17.9607 1.84579 17.8125 2.21875 17.8125H4.09375C4.46671 17.8125 4.8244 17.9607 5.08812 18.2244C5.35184 18.4881 5.5 18.8458 5.5 19.2188V27.6562C5.5 28.0292 5.35184 28.3869 5.08812 28.6506C4.8244 28.9143 4.46671 29.0625 4.09375 29.0625ZM17.2188 29.0625H15.3438C14.9708 29.0625 14.6131 28.9143 14.3494 28.6506C14.0857 28.3869 13.9375 28.0292 13.9375 27.6562V13.5938C13.9375 13.2208 14.0857 12.8631 14.3494 12.5994C14.6131 12.3357 14.9708 12.1875 15.3438 12.1875H17.2188C17.5917 12.1875 17.9494 12.3357 18.2131 12.5994C18.4768 12.8631 18.625 13.2208 18.625 13.5938V27.6562C18.625 28.0292 18.4768 28.3869 18.2131 28.6506C17.9494 28.9143 17.5917 29.0625 17.2188 29.0625ZM23.7812 29.0625H21.9062C21.5333 29.0625 21.1756 28.9143 20.9119 28.6506C20.6482 28.3869 20.5 28.0292 20.5 27.6562V7.03125C20.5 6.65829 20.6482 6.3006 20.9119 6.03688C21.1756 5.77316 21.5333 5.625 21.9062 5.625H23.7812C24.1542 5.625 24.5119 5.77316 24.7756 6.03688C25.0393 6.3006 25.1875 6.65829 25.1875 7.03125V27.6562C25.1875 28.0292 25.0393 28.3869 24.7756 28.6506C24.5119 28.9143 24.1542 29.0625 23.7812 29.0625ZM10.6562 29.0625H8.78125C8.40829 29.0625 8.0506 28.9143 7.78688 28.6506C7.52316 28.3869 7.375 28.0292 7.375 27.6562V2.34375C7.375 1.97079 7.52316 1.6131 7.78688 1.34938C8.0506 1.08566 8.40829 0.9375 8.78125 0.9375H10.6562C11.0292 0.9375 11.3869 1.08566 11.6506 1.34938C11.9143 1.6131 12.0625 1.97079 12.0625 2.34375V27.6562C12.0625 28.0292 11.9143 28.3869 11.6506 28.6506C11.3869 28.9143 11.0292 29.0625 10.6562 29.0625Z" fill="#272866"/>
</svg>
